<svg width="16" height="17" viewBox="0 0 16 17" fill="none" xmlns="http://www.w3.org/2000/svg">
<path d="M15.5384 8.65389H12.7692V7.69427C14.1624 7.47233 15.2307 6.26252 15.2307 4.80777V4.19239C15.2307 3.93752 15.0241 3.73086 14.7692 3.73086C14.5143 3.73086 14.3077 3.93752 14.3077 4.19239V4.80777C14.3077 5.75171 13.6502 6.54442 12.7692 6.75342V6.34624C12.7692 5.92208 12.4242 5.57702 12 5.57702H11.5384V3.88474C11.5384 2.91392 10.843 2.10274 9.92419 1.92246L10.2679 1.14914C10.3714 0.916237 10.2665 0.643456 10.0336 0.539956C9.80059 0.436393 9.52787 0.541331 9.42437 0.774268L8.93081 1.88477H7.06915L6.57562 0.774206C6.47212 0.541299 6.19934 0.436362 5.96644 0.539893C5.73353 0.643393 5.62862 0.916174 5.73212 1.14908L6.07581 1.92239C5.15703 2.10271 4.46159 2.91383 4.46159 3.88467V5.57696H4.00006C3.5759 5.57696 3.23084 5.92202 3.23084 6.34617V6.75336C2.3499 6.54439 1.6924 5.75164 1.6924 4.80771V4.19233C1.6924 3.93746 1.48575 3.7308 1.23087 3.7308C0.975999 3.7308 0.769342 3.93746 0.769342 4.19233V4.80771C0.769342 6.26246 1.83762 7.47224 3.23087 7.69421V8.65383H0.461592C0.206717 8.65383 6.10352e-05 8.86049 6.10352e-05 9.11536C6.10352e-05 9.37024 0.206717 9.57689 0.461592 9.57689H3.23081V10.5365C1.83756 10.7585 0.76928 11.9683 0.76928 13.423V14.0384C0.76928 14.2933 0.975936 14.4999 1.23081 14.4999C1.48569 14.4999 1.69234 14.2933 1.69234 14.0384V13.423C1.69234 12.4791 2.34984 11.6864 3.23078 11.4774V11.7307C3.23081 14.3605 5.37028 16.5 8 16.5C10.6297 16.5 12.7692 14.3605 12.7692 11.7308V11.4775C13.6501 11.6865 14.3076 12.4792 14.3076 13.4231V14.0385C14.3076 14.2934 14.5143 14.5 14.7692 14.5C15.024 14.5 15.2307 14.2934 15.2307 14.0385V13.4231C15.2307 11.9684 14.1624 10.7586 12.7692 10.5366V9.57699H15.5384C15.7932 9.57699 15.9999 9.37033 15.9999 9.11546C15.9999 8.86058 15.7933 8.65389 15.5384 8.65389ZM5.38462 3.88471C5.38462 3.29089 5.86772 2.8078 6.46153 2.8078H9.53844C10.1322 2.8078 10.6153 3.29089 10.6153 3.88471V5.57699H5.38462V3.88471ZM11.8461 11.7308C11.8461 13.8515 10.1207 15.5769 8 15.5769C5.87925 15.5769 4.15387 13.8515 4.15387 11.7308V6.50008H7.53847V10.9616C7.53847 11.2165 7.74512 11.4231 8 11.4231C8.25487 11.4231 8.46153 11.2165 8.46153 10.9616V6.50008H11.8461V11.7308Z" fill="#7D7D7D"/>
</svg>
