<svg width="16" height="16" viewBox="0 0 16 16" fill="none" xmlns="http://www.w3.org/2000/svg">
<g clip-path="url(#clip0_1184_139)">
<path d="M7.99955 15.9972C3.70046 16.0858 -0.0874117 12.2984 0.00153569 7.99911C-0.0180221 1.13113 8.211 -2.54955 13.3231 2.0307C13.5806 2.26049 13.603 2.65549 13.3732 2.91295C13.1434 3.17042 12.7485 3.19286 12.491 2.96307C8.22219 -0.907034 1.21028 2.2319 1.25124 7.99926C1.21025 13.7661 8.22312 16.9058 12.4909 13.0353C12.7483 12.8055 13.1434 12.8279 13.3732 13.0854C13.603 13.3429 13.5806 13.7379 13.3231 13.9676C11.8567 15.2765 9.96605 15.9972 7.99955 15.9972ZM13.3451 11.444L15.4474 9.37681C15.4484 9.37581 15.4494 9.37481 15.4504 9.37378C15.8048 9.02042 16 8.55054 16 8.0506C16 7.55068 15.8048 7.0808 15.4504 6.72748C15.4486 6.72566 15.4468 6.72388 15.445 6.72213L13.3427 4.677C13.0953 4.43631 12.6997 4.44181 12.4591 4.68915C12.2185 4.9365 12.2239 5.33212 12.4713 5.57275L14.5704 7.61483C14.6865 7.7317 14.7503 7.88635 14.7504 8.05069C14.7504 8.21549 14.6861 8.37058 14.5693 8.48759L12.4689 10.5529C12.2228 10.7949 12.2195 11.1905 12.4614 11.4366C12.5838 11.5609 12.7453 11.6233 12.907 11.6233C13.0651 11.6233 13.2234 11.5636 13.3451 11.444ZM13.5318 7.99917C13.5318 7.65407 13.2521 7.37432 12.907 7.37432H4.43788C3.6097 7.40503 3.61036 8.59359 4.43788 8.62405H12.907C13.2521 8.62402 13.5318 8.34424 13.5318 7.99917Z" fill="#7D7D7D"/>
</g>
<defs>
<clipPath id="clip0_1184_139">
<rect width="16" height="16" fill="white"/>
</clipPath>
</defs>
</svg>
