<svg width="16" height="16" viewBox="0 0 16 16" fill="none" xmlns="http://www.w3.org/2000/svg">
<path d="M7.743 11.3125H1.03825C0.46575 11.3125 0 11.7782 0 12.3507V14.9618C0 15.5343 0.46575 16 1.03825 16H7.74303C8.3155 16 8.78125 15.5343 8.78125 14.9618V12.3507C8.78125 11.7782 8.3155 11.3125 7.743 11.3125ZM7.84375 14.9618C7.84375 15.0173 7.79856 15.0625 7.743 15.0625H1.03825C0.982719 15.0625 0.9375 15.0173 0.9375 14.9618V12.3507C0.9375 12.2952 0.982687 12.25 1.03825 12.25H7.74303C7.79856 12.25 7.84378 12.2952 7.84378 12.3507V14.9618H7.84375Z" fill="#7D7D7D"/>
<path d="M1.03825 4.6875H7.74303C8.3155 4.6875 8.78125 4.22175 8.78125 3.64925V1.03825C8.78125 0.46575 8.3155 0 7.743 0H1.03825C0.46575 0 0 0.46575 0 1.03825V3.64928C0 4.22175 0.46575 4.6875 1.03825 4.6875ZM0.9375 1.03825C0.9375 0.982687 0.982687 0.9375 1.03825 0.9375H7.74303C7.79856 0.9375 7.84378 0.982687 7.84378 1.03825V3.64928C7.84378 3.70481 7.79859 3.75003 7.74303 3.75003H1.03825C0.982719 3.75003 0.9375 3.70484 0.9375 3.64928V1.03825Z" fill="#7D7D7D"/>
<path d="M10.2229 5.65625H3.51811C2.94564 5.65625 2.47986 6.122 2.47986 6.6945V9.30553C2.47986 9.878 2.94561 10.3438 3.51811 10.3438H10.2229C10.7954 10.3438 11.2611 9.87803 11.2611 9.30553V6.6945C11.2611 6.122 10.7954 5.65625 10.2229 5.65625ZM10.3236 9.3055C10.3236 9.36103 10.2785 9.40625 10.2229 9.40625H3.51811C3.46258 9.40625 3.41736 9.36106 3.41736 9.3055V6.69447C3.41736 6.63894 3.46255 6.59372 3.51811 6.59372H10.2229C10.2785 6.59372 10.3236 6.63891 10.3236 6.69447L10.3236 9.3055Z" fill="#7D7D7D"/>
<path d="M14.605 1.87502H11.3191L11.4865 1.70771C11.6695 1.52468 11.6695 1.22787 11.4865 1.04481C11.3034 0.861774 11.0066 0.861774 10.8236 1.04481L9.85606 2.01231C9.67484 2.18693 9.67487 2.50065 9.85606 2.67521L10.8236 3.64271C10.9151 3.73424 11.0351 3.78002 11.155 3.78002C11.2749 3.78002 11.3949 3.73424 11.4864 3.64271C11.6695 3.45968 11.6695 3.16287 11.4864 2.97981L11.3191 2.81252H14.605C14.8572 2.81252 15.0625 3.01774 15.0625 3.27002V7.07377C15.0625 7.32602 14.8573 7.53127 14.605 7.53127H12.6673C12.4085 7.53127 12.1986 7.74115 12.1986 8.00002C12.1986 8.2589 12.4085 8.46877 12.6673 8.46877H14.605C15.3742 8.46877 16 7.84299 16 7.07377V3.27002C16 2.50081 15.3742 1.87502 14.605 1.87502Z" fill="#7D7D7D"/>
<path d="M8.91736 7.53125H4.82361C4.56473 7.53125 4.35486 7.74112 4.35486 8C4.35486 8.25888 4.56473 8.46875 4.82361 8.46875H8.91736C9.17623 8.46875 9.38611 8.25888 9.38611 8C9.38611 7.74112 9.17627 7.53125 8.91736 7.53125Z" fill="#7D7D7D"/>
</svg>
