<svg width="16" height="16" viewBox="0 0 16 16" fill="none" xmlns="http://www.w3.org/2000/svg">
<path d="M16 5.71875C16 5.37356 15.7175 5.09375 15.3723 5.09375C15.0272 5.09375 14.7473 5.37356 14.7473 5.71875V11.7738C14.4637 11.6385 14.1468 11.5625 13.8125 11.5625H2.31297C1.72684 11.5625 1.25 11.0938 1.25 10.4688C1.25 9.84375 1.72684 9.375 2.31297 9.375H3.46875C3.81394 9.375 4.09375 9.09519 4.09375 8.75V3.21928H8.28125C8.62644 3.21928 8.90625 2.93947 8.90625 2.59428C8.90625 2.24909 8.62644 1.96928 8.28125 1.96928H4.09375V0.625C4.09375 0.279813 3.81394 0 3.46875 0H2.31297C1.03759 0 0 1.03759 0 2.31297V10.4996C0 11.7749 1.03759 12.8125 2.31297 12.8125H11.7188V15.375C11.7188 15.7202 11.9986 16 12.3438 16H13.8125C15.0187 16 16 15.0187 16 13.8125C16 13.8037 16 5.71875 16 5.71875ZM1.25 2.31297C1.25 1.72684 1.72684 1.25 2.31297 1.25H2.84375V8.125H2.31297C1.92997 8.125 1.56847 8.21878 1.25 8.38463V2.31297ZM13.8125 14.75H12.9688V12.8125H13.8125C14.3069 12.8125 14.7129 13.2015 14.7473 13.6927V13.875C14.7473 13.8759 14.7475 13.8768 14.7475 13.8777C14.7139 14.3643 14.3075 14.75 13.8125 14.75ZM8.61516 7.31147C8.73441 7.43372 8.89641 7.50003 9.06253 7.50003C9.11816 7.50003 9.17425 7.49259 9.22934 7.47731L11.752 6.77853C11.8558 6.74978 11.9505 6.69466 12.0267 6.61856L15.4508 3.20084C16.1819 2.46978 16.1819 1.28028 15.4508 0.549187C14.7198 -0.181844 13.5302 -0.181906 12.7997 0.548688L9.36831 3.97244C9.29544 4.04516 9.24162 4.13472 9.21172 4.23322L8.46447 6.69338C8.39822 6.91147 8.45597 7.14831 8.61516 7.31147ZM13.6831 1.43306C13.9267 1.18938 14.3232 1.18938 14.5669 1.43306C14.8106 1.67675 14.8106 2.07325 14.5673 2.31653L14.4462 2.43738L13.5623 1.55347L13.6831 1.43306ZM10.3622 4.74653L12.6775 2.43641L13.5616 3.32044L11.2599 5.61775L9.99081 5.96931L10.3622 4.74653Z" fill="#7D7D7D"/>
</svg>
