<svg width="16" height="16" viewBox="0 0 16 16" fill="none" xmlns="http://www.w3.org/2000/svg">
<path d="M15.6852 7.44095L13.1158 6.15628L15.6852 4.87148C16.1448 4.64174 16.1453 3.98354 15.6852 3.75343L8.31019 0.0659183C8.13416 -0.0219728 7.92713 -0.0219728 7.7511 0.0659183L0.37607 3.75343C-0.0835271 3.98329 -0.0840154 4.6415 0.37607 4.87148L2.94554 6.15628L0.37607 7.44095C-0.0835271 7.67081 -0.0840154 8.32889 0.37607 8.559L2.94554 9.84379L0.37607 11.1285C-0.0835271 11.3583 -0.0840154 12.0164 0.37607 12.2465L7.7511 15.934C7.92676 16.0218 8.13379 16.0222 8.31019 15.934L15.6852 12.2465C16.1448 12.0167 16.1453 11.3586 15.6852 11.1285L13.1158 9.84379L15.6852 8.559C16.1448 8.32926 16.1453 7.67105 15.6852 7.44095ZM14.0081 11.6876L8.03064 14.6762L2.0532 11.6876L4.34313 10.5425L7.7511 12.2465C7.92688 12.3343 8.13379 12.3346 8.31019 12.2465L11.7182 10.5425L14.0081 11.6876ZM8.03064 10.9887L2.0532 8.00004L4.34313 6.85501L7.7511 8.559C7.92688 8.64677 8.13379 8.64713 8.31019 8.559L11.7182 6.85501L14.0081 8.00004L8.03064 10.9887Z" fill="#7D7D7D"/>
</svg>
