<svg width="16" height="16" viewBox="0 0 16 16" fill="none" xmlns="http://www.w3.org/2000/svg">
<g clip-path="url(#clip0_1184_144)">
<path d="M15.7502 6.99898C15.6214 6.91814 14.6123 6.31364 14.2113 6.13017L13.7143 4.93042C13.862 4.5337 14.1441 3.4208 14.1882 3.22786C14.229 3.04899 14.1751 2.86168 14.0454 2.73193L13.2683 1.95483C13.1385 1.82508 12.9512 1.77115 12.7723 1.81202C12.626 1.84549 11.484 2.13171 11.0698 2.2859L9.86998 1.78893C9.69442 1.40518 9.10792 0.419962 9.00117 0.249994C8.90364 0.0945877 8.73301 0.000244141 8.54951 0.000244141H7.45045C7.26695 0.000244141 7.09633 0.0945877 6.99877 0.249994C6.91792 0.378775 6.31343 1.38787 6.12996 1.78893L4.93021 2.2859C4.53349 2.13824 3.42059 1.85615 3.22765 1.81202C3.04878 1.77118 2.86146 1.82512 2.73171 1.95483L1.95459 2.73196C1.82484 2.86171 1.7709 3.04902 1.81178 3.22789C1.84525 3.37421 2.13146 4.5162 2.28565 4.93045L1.78868 6.1302C1.40493 6.30576 0.419718 6.89226 0.24975 6.99901C0.0943436 7.09654 0 7.26717 0 7.45067V8.54973C0 8.73323 0.0943436 8.90385 0.24975 9.00141C0.378531 9.08226 1.38762 9.68676 1.78868 9.87022L2.28565 11.07C2.138 11.4667 1.8559 12.5796 1.81178 12.7725C1.77093 12.9514 1.82484 13.1387 1.95459 13.2685L2.73171 14.0456C2.86146 14.1753 3.04884 14.2293 3.22765 14.1884C3.37396 14.1549 4.51596 13.8687 4.93021 13.7145L6.12996 14.2115C6.30552 14.5952 6.89202 15.5805 6.99877 15.7504C7.09633 15.9058 7.26695 16.0002 7.45045 16.0002H8.54951C8.73301 16.0002 8.90364 15.9058 9.0012 15.7504C9.08205 15.6217 9.68654 14.6126 9.87001 14.2115L11.0698 13.7145C11.4665 13.8622 12.5794 14.1443 12.7723 14.1884C12.9513 14.2293 13.1385 14.1753 13.2683 14.0456L14.0454 13.2685C14.1751 13.1387 14.2291 12.9514 14.1882 12.7725C14.1547 12.6262 13.8685 11.4842 13.7143 11.07L14.2113 9.87022C14.595 9.69466 15.5803 9.10816 15.7502 9.00141C15.9056 8.90385 16 8.73323 16 8.54973V7.45067C16 7.26717 15.9056 7.09654 15.7502 6.99898ZM14.9334 8.24914H14.9333C14.5534 8.47488 13.921 8.83857 13.7227 8.92088C13.5453 8.9501 13.3889 9.06829 13.3165 9.24313L12.6382 10.8807C12.5658 11.0555 12.5928 11.2497 12.6976 11.3958C12.7797 11.5944 12.9696 12.2986 13.0786 12.7268L12.7265 13.0788C12.2984 12.9699 11.5942 12.78 11.3955 12.6978C11.2494 12.593 11.0552 12.566 10.8804 12.6384L9.24289 13.3167C9.06808 13.3892 8.94989 13.5456 8.92064 13.723C8.83836 13.9212 8.47464 14.5536 8.24889 14.9336H7.75102C7.52527 14.5536 7.16158 13.9212 7.07927 13.723C7.05005 13.5455 6.93186 13.3891 6.75702 13.3167L5.11946 12.6384C4.94465 12.566 4.75046 12.5931 4.60437 12.6978C4.40584 12.78 3.70159 12.9698 3.27334 13.0788L2.92128 12.7268C3.03024 12.2986 3.22018 11.5944 3.30227 11.3958C3.40706 11.2497 3.43409 11.0555 3.36168 10.8807L2.6834 9.24313C2.61096 9.06832 2.45456 8.95013 2.27715 8.92088C2.07896 8.8386 1.44662 8.47488 1.06665 8.24914V7.75126C1.44659 7.52551 2.07896 7.16182 2.27725 7.07951C2.45468 7.05029 2.61109 6.93211 2.6835 6.75726L3.36177 5.11973C3.43415 4.94492 3.40715 4.75073 3.30237 4.60461C3.22024 4.40599 3.03034 3.7018 2.92137 3.27361L3.27343 2.92155C3.70159 3.03052 4.4058 3.22043 4.60443 3.30255C4.75052 3.40733 4.94471 3.43436 5.11955 3.36196L6.75708 2.68368C6.93189 2.61124 7.05008 2.45483 7.07933 2.27743C7.16158 2.07921 7.5253 1.44687 7.75105 1.0669H8.24892C8.47467 1.44684 8.83836 2.07921 8.92067 2.27749C8.94989 2.45493 9.06808 2.61133 9.24292 2.68374L10.8804 3.36202C11.0553 3.43439 11.2494 3.40743 11.3955 3.30261C11.5941 3.22049 12.2983 3.03061 12.7266 2.92161L13.0786 3.27368C12.9697 3.70183 12.7797 4.40605 12.6976 4.60467C12.5929 4.7508 12.5658 4.94498 12.6382 5.1198L13.3165 6.75732C13.3889 6.93214 13.5453 7.05032 13.7228 7.07957C13.921 7.16186 14.5534 7.52557 14.9333 7.75132L14.9334 8.24914Z" fill="#7D7D7D"/>
<path d="M7.99998 4.51233C6.07689 4.51233 4.51233 6.07689 4.51233 7.99998C4.51233 9.92307 6.07689 11.4876 7.99998 11.4876C9.92307 11.4876 11.4876 9.92304 11.4876 7.99995C11.4876 6.07686 9.92307 4.51233 7.99998 4.51233ZM7.99998 10.4209C6.66504 10.4209 5.57901 9.33491 5.57901 7.99998C5.57901 6.66504 6.66504 5.57901 7.99998 5.57901C9.33491 5.57901 10.4209 6.66504 10.4209 7.99998C10.4209 9.33491 9.33491 10.4209 7.99998 10.4209Z" fill="#7D7D7D"/>
</g>
<defs>
<clipPath id="clip0_1184_144">
<rect width="16" height="16" fill="white"/>
</clipPath>
</defs>
</svg>
