<svg width="16" height="16" viewBox="0 0 16 16" fill="#7D7D7D" xmlns="http://www.w3.org/2000/svg">
<path d="M13.5915 1.44159C13.2672 1.11653 12.8358 0.9375 12.3768 0.9375H11.6016V0.78125C11.6016 0.350469 11.2511 0 10.8203 0H5.19531C4.76453 0 4.41406 0.350469 4.41406 0.78125V0.9375H3.63603C2.69038 0.9375 1.92016 1.70769 1.91909 2.65434L1.90625 14.2793C1.90575 14.7388 2.08409 15.1708 2.40844 15.4959C2.73281 15.821 3.16422 16 3.62319 16H12.3639C13.3096 16 14.0798 15.2298 14.0809 14.2832L14.0938 2.65816C14.0943 2.19869 13.9159 1.76663 13.5915 1.44159ZM5.35156 0.9375H10.6641V1.875H5.35156V0.9375ZM13.1444 14.2821C13.1439 14.7124 12.7938 15.0625 12.3639 15.0625H3.62319C3.41456 15.0625 3.21847 14.9811 3.07103 14.8334C2.92359 14.6856 2.84253 14.4892 2.84275 14.2804L2.85559 2.65541C2.85606 2.22506 3.20616 1.875 3.63603 1.875H4.41406V2.03125C4.41406 2.46203 4.76453 2.8125 5.19531 2.8125H10.8203C11.2511 2.8125 11.6016 2.46203 11.6016 2.03125V1.875H12.3768C12.5854 1.875 12.7815 1.95638 12.929 2.10413C13.0764 2.25187 13.1575 2.44828 13.1573 2.65709L13.1444 14.2821Z" />
<path d="M8.15936 6.25H11.4897C11.7486 6.25 11.9585 6.04013 11.9585 5.78125C11.9585 5.52237 11.7486 5.3125 11.4897 5.3125H8.15936C7.90049 5.3125 7.69061 5.52237 7.69061 5.78125C7.69061 6.04013 7.90049 6.25 8.15936 6.25Z" />
<path d="M8.15936 9.375H11.4897C11.7486 9.375 11.9585 9.16513 11.9585 8.90625C11.9585 8.64737 11.7486 8.4375 11.4897 8.4375H8.15936C7.90049 8.4375 7.69061 8.64737 7.69061 8.90625C7.69061 9.16513 7.90049 9.375 8.15936 9.375Z" />
<path d="M11.5031 11.5625H8.15936C7.90049 11.5625 7.69061 11.7724 7.69061 12.0312C7.69061 12.2901 7.90049 12.5 8.15936 12.5H11.5031C11.762 12.5 11.9719 12.2901 11.9719 12.0312C11.9719 11.7724 11.762 11.5625 11.5031 11.5625Z" />
<path d="M6.16428 4.50491L5.08328 5.58591L4.8284 5.331C4.64534 5.14794 4.34856 5.14794 4.1655 5.331C3.98243 5.51403 3.98243 5.81084 4.1655 5.99391L4.75184 6.58028C4.83975 6.66819 4.95896 6.7176 5.08331 6.7176C5.20762 6.7176 5.32684 6.66822 5.41475 6.58028L6.82721 5.16785C7.01028 4.98481 7.01028 4.688 6.82721 4.50494C6.64415 4.32185 6.34737 4.32185 6.16428 4.50491Z" />
<path d="M6.16428 7.86859L5.08328 8.94959L4.8284 8.69472C4.64534 8.51166 4.34856 8.51166 4.1655 8.69472C3.98243 8.87775 3.98243 9.17453 4.1655 9.35762L4.75184 9.944C4.83975 10.0319 4.95896 10.0813 5.08331 10.0813C5.20762 10.0813 5.32687 10.0319 5.41475 9.944L6.82721 8.53153C7.01028 8.3485 7.01028 8.05169 6.82721 7.86862C6.64415 7.68556 6.34734 7.68556 6.16428 7.86859Z" />
<path d="M6.16428 10.9936L5.08328 12.0746L4.8284 11.8197C4.64534 11.6367 4.34856 11.6367 4.1655 11.8197C3.98243 12.0027 3.98243 12.2995 4.1655 12.4826L4.75184 13.069C4.83975 13.1569 4.95896 13.2063 5.08331 13.2063C5.20762 13.2063 5.32687 13.1569 5.41475 13.069L6.82721 11.6565C7.01028 11.4735 7.01028 11.1767 6.82721 10.9936C6.64415 10.8106 6.34734 10.8106 6.16428 10.9936Z" />
</svg>
