<?xml version="1.0" encoding="UTF-8"?>
<svg width="11px" height="14px" viewBox="0 0 11 14" version="1.1" xmlns="http://www.w3.org/2000/svg" xmlns:xlink="http://www.w3.org/1999/xlink">
    <title>noun_glow_3194436</title>
    <g id="Page-1" stroke="none" stroke-width="1" fill="none" fill-rule="evenodd" opacity="0.3">
        <g id="Milestones" transform="translate(-138.000000, -1063.000000)" fill="#000000" fill-rule="nonzero">
            <g id="Group-18" transform="translate(130.000000, 871.000000)">
                <g id="Group-11" transform="translate(0.000000, 187.000000)">
                    <g id="Group" transform="translate(8.133399, 5.087500)">
                        <path d="M5.56868475,2.69791667 C4.41660141,2.63958333 3.32285141,3.15 2.59368475,4.08333333 C2.21451808,4.57916667 1.96660141,5.17708333 1.89368475,5.80416667 C1.80618475,6.76666667 2.05410141,7.67083333 2.63743475,8.4 C3.06035141,8.93958333 3.35201808,9.45 3.52701808,9.98958333 L3.59993475,10.19375 C3.64368475,10.3104167 3.74576808,10.3833333 3.84785141,10.3833333 L4.98535141,10.3833333 L4.98535141,7.40833333 L3.62910141,5.96458333 C3.46868475,5.78958333 3.48326808,5.54166667 3.64368475,5.38125 C3.81868475,5.22083333 4.06660141,5.23541667 4.22701808,5.39583333 L5.39368475,6.63541667 L6.56035141,5.39583333 C6.72076808,5.22083333 6.98326808,5.22083333 7.14368475,5.38125 C7.30410141,5.54166667 7.31868475,5.80416667 7.15826808,5.96458333 L5.80201808,7.40833333 L5.80201808,10.36875 L6.95410141,10.36875 C7.07076808,10.36875 7.17285141,10.2958333 7.20201808,10.1791667 L7.27493475,9.975 C7.44993475,9.45 7.72701808,8.95416667 8.13535141,8.42916667 C8.45618475,8.02083333 8.70410141,7.55416667 8.82076808,7.05833333 C9.37493475,4.84166667 7.71243475,2.8 5.56868475,2.69791667 Z" id="Path"></path>
                        <path d="M5.40826808,1.8375 C5.64160141,1.8375 5.81660141,1.64791667 5.81660141,1.42916667 L5.81660141,0.408333333 C5.81660141,0.175 5.62701808,0 5.40826808,0 C5.17493475,0 4.99993475,0.189583333 4.99993475,0.408333333 L4.99993475,1.42916667 C4.99993475,1.64791667 5.17493475,1.8375 5.40826808,1.8375 Z" id="Path"></path>
                        <path d="M2.68118475,2.26041667 C2.75410141,2.39166667 2.89993475,2.46458333 3.04576808,2.46458333 C3.11868475,2.46458333 3.19160141,2.45 3.24993475,2.40625 C3.45410141,2.28958333 3.51243475,2.04166667 3.39576808,1.8375 L2.88535141,0.947916667 C2.76868475,0.74375 2.52076808,0.685416667 2.31660141,0.802083333 C2.11243475,0.91875 2.05410141,1.16666667 2.17076808,1.37083333 L2.68118475,2.26041667 Z" id="Path"></path>
                        <path d="M1.51451808,3.42708333 L0.624934745,2.91666667 C0.420768079,2.8 0.172851412,2.87291667 0.0561847454,3.0625 C-0.0604819212,3.26666667 0.0124347454,3.51458333 0.202018079,3.63125 L1.09160141,4.14166667 C1.14993475,4.18541667 1.22285141,4.2 1.29576808,4.2 C1.44160141,4.2 1.57285141,4.12708333 1.66035141,3.99583333 C1.77701808,3.80625 1.71868475,3.54375 1.51451808,3.42708333 Z" id="Path"></path>
                        <path d="M10.7457681,3.07708333 C10.6291014,2.87291667 10.3811847,2.81458333 10.1770181,2.93125 L9.28743475,3.44166667 C9.08326808,3.55833333 9.02493475,3.80625 9.14160141,4.01041667 C9.21451808,4.14166667 9.36035141,4.21458333 9.50618475,4.21458333 C9.57910141,4.21458333 9.65201808,4.2 9.71035141,4.15625 L10.5999347,3.64583333 C10.8041014,3.52916667 10.8624347,3.26666667 10.7457681,3.07708333 Z" id="Path"></path>
                        <path d="M7.56660141,2.42083333 C7.62493475,2.46458333 7.69785141,2.47916667 7.77076808,2.47916667 C7.91660141,2.47916667 8.04785141,2.40625 8.13535141,2.275 L8.64576808,1.38541667 C8.76243475,1.18125 8.68951808,0.933333333 8.49993475,0.816666667 C8.29576808,0.7 8.04785141,0.772916667 7.93118475,0.9625 L7.42076808,1.85208333 C7.30410141,2.05625 7.36243475,2.30416667 7.56660141,2.42083333 Z" id="Path"></path>
                        <path d="M6.95410141,11.2583333 L3.86243475,11.2583333 C3.73118475,11.2583333 3.62910141,11.3604167 3.62910141,11.4916667 L3.62910141,12.4979167 C3.62910141,12.6291667 3.73118475,12.73125 3.86243475,12.73125 L4.12493475,12.73125 C4.22701808,13.3583333 4.75201808,13.8395833 5.40826808,13.8395833 C6.06451808,13.8395833 6.58951808,13.3583333 6.69160141,12.73125 L6.95410141,12.73125 C7.08535141,12.73125 7.18743475,12.6291667 7.18743475,12.4979167 L7.18743475,11.4916667 C7.18743475,11.3604167 7.08535141,11.2583333 6.95410141,11.2583333 Z" id="Path"></path>
                    </g>
                </g>
            </g>
        </g>
    </g>
</svg>