<?xml version="1.0" encoding="UTF-8"?>
<svg width="38px" height="34px" viewBox="0 0 38 34" version="1.1" xmlns="http://www.w3.org/2000/svg" xmlns:xlink="http://www.w3.org/1999/xlink">
    <title>Group 20</title>
    <defs>
        <rect id="path-1" x="0" y="0" width="30" height="30" rx="15"></rect>
    </defs>
    <g id="Page-1" stroke="none" stroke-width="1" fill="none" fill-rule="evenodd">
        <g id="Milestones" transform="translate(-372.000000, -511.000000)">
            <g id="Group-23" transform="translate(130.000000, 513.000000)">
                <g id="Group-20" transform="translate(244.000000, 0.000000)">
                    <g id="Unknown-Copy" opacity="0.8">
                        <g id="Group-13">
                            <mask id="mask-2" fill="white">
                                <use xlink:href="#path-1"></use>
                            </mask>
                            <rect stroke="#FFFFFF" stroke-width="2" x="-1" y="-1" width="32" height="32" rx="16"></rect>
                            <g id="Group-29" mask="url(#mask-2)">
                                <g transform="translate(8.000000, 8.000000)" id="Path">
                                    <path d="M6.94896156,4.52749704e-13 C4.76009024,4.52749704e-13 2.96473612,1.77776837 2.96473612,3.97081054 C2.96473612,5.68188947 4.06059269,7.15165344 5.58064171,7.71356778 C2.40370867,8.32569076 -5.17428233e-13,11.0043429 -5.17428233e-13,14.2600392 C-0.00214632299,14.4148519 0.0791911531,14.5588508 0.212909831,14.6368961 C0.346628509,14.7149413 0.512011348,14.7149413 0.645730026,14.6368961 C0.779448704,14.5588508 0.86078618,14.4148519 0.858596744,14.2600392 C0.858596744,11.0287954 3.55923643,8.4245575 6.94896156,8.4245575 C10.3386858,8.4245575 13.0259115,11.0287954 13.0259115,14.2600392 C13.023722,14.4148519 13.1050595,14.5588508 13.2387782,14.6368961 C13.3724969,14.7149413 13.5378797,14.7149413 13.6715984,14.6368961 C13.8053171,14.5588508 13.8866545,14.4148519 13.8845082,14.2600392 C13.8845082,11.0043429 11.4916817,8.32569076 8.31728141,7.71356778 C9.83374083,7.15165344 10.9197721,5.68188947 10.9197721,3.97081054 C10.9197721,1.77776837 9.13783288,4.52749704e-13 6.94896156,4.52749704e-13 Z" fill="#7F7F7F"></path>
                                    <path d="M6.94896156,0.858553631 C8.6725406,0.858553631 10.0612185,2.24046868 10.0612185,3.97081054 C10.0612185,5.70113953 8.67254146,7.09648236 6.94896156,7.09648236 C5.22538124,7.09648236 3.82328975,5.70113953 3.82328975,3.97081054 C3.82328975,2.24046868 5.22538167,0.858553631 6.94896156,0.858553631 Z" fill="#ECECEC"></path>
                                </g>
                            </g>
                        </g>
                    </g>
                    <g id="Group-21" transform="translate(20.000000, 14.000000)" fill-rule="nonzero">
                        <rect id="Rectangle-6" fill="#5A7DB3" x="0" y="0" width="16" height="16" rx="8"></rect>
                        <polygon id="+" fill="#FFFFFF" points="8.35468235 10.904 8.35468235 8.31877647 10.904 8.31877647 10.904 7.39719216 8.35468235 7.39719216 8.35468235 4.8 7.33734902 4.8 7.33734902 7.39719216 4.8 7.39719216 4.8 8.31877647 7.33734902 8.31877647 7.33734902 10.904"></polygon>
                    </g>
                </g>
            </g>
        </g>
    </g>
</svg>