<?xml version="1.0" encoding="UTF-8"?>
<svg width="24px" height="24px" viewBox="0 0 24 24" version="1.1" xmlns="http://www.w3.org/2000/svg" xmlns:xlink="http://www.w3.org/1999/xlink">
    <title>Document Active</title>
    <g id="Page-1" stroke="none" stroke-width="1" fill="none" fill-rule="evenodd">
        <g id="Milestones" transform="translate(-449.000000, -386.000000)" fill="#95A0B8">
            <g id="Group-23" transform="translate(130.000000, 376.000000)">
                <g id="Document-Active" transform="translate(319.000000, 10.000000)">
                    <rect id="Rectangle" opacity="0.15" x="0" y="0" width="24" height="24" rx="4"></rect>
                    <path d="M17.4751266,8.01719028 C16.4789991,7.0260818 14.8537385,7.0260818 13.857611,8.01719028 L8.48376527,13.3900415 C7.88084599,13.9899229 7.88084599,14.9549496 8.48376527,15.5548311 C9.08668454,16.1547125 10.0565982,16.1547125 10.6595174,15.5548311 L13.9886804,12.2163604 C14.1983914,12.007706 14.1983914,11.6947244 13.9886804,11.4860699 C13.7789693,11.2774155 13.4644027,11.2774155 13.2546917,11.4860699 L9.89931486,14.7984588 C9.71581769,14.9810314 9.40125112,14.9810314 9.21775395,14.7984588 C9.03425678,14.6158862 9.03425678,14.3029046 9.21775395,14.120332 L14.5915996,8.74748074 C15.168305,8.17368109 16.1382186,8.17368109 16.714924,8.74748074 C17.2916294,9.32128038 17.2916294,10.2863071 16.714924,10.8601067 L11.3410783,16.2329579 C10.3449508,17.2240664 8.74590408,17.2240664 7.77599047,16.2329579 C6.77986297,15.2418494 6.77986297,13.6508595 7.77599047,12.6858328 L12.5993447,7.88678127 C12.8090557,7.67812685 12.8090557,7.36514523 12.5993447,7.15649081 C12.3896336,6.9478364 12.075067,6.9478364 11.865356,7.15649081 L7.04200179,11.9294606 C5.65266607,13.3117961 5.65266607,15.5809129 7.04200179,16.9632484 C8.4313375,18.3455839 10.7119452,18.3455839 12.1012809,16.9632484 L17.4751266,11.616479 C18.4712541,10.6253705 18.4712541,9.00829876 17.4751266,8.01719028 Z" id="Path" fill-rule="nonzero"></path>
                </g>
            </g>
        </g>
    </g>
</svg>