<?xml version="1.0" encoding="UTF-8"?>
<svg width="30px" height="30px" viewBox="0 0 30 30" version="1.1" xmlns="http://www.w3.org/2000/svg" xmlns:xlink="http://www.w3.org/1999/xlink">
    <title>Group 27</title>
    <g id="Page-1" stroke="none" stroke-width="1" fill="none" fill-rule="evenodd">
        <g id="Milestones" transform="translate(-1370.000000, -120.000000)" fill="#5A7DB3" fill-rule="nonzero">
            <g id="Group-27" transform="translate(1370.000000, 120.000000)">
                <rect id="Rectangle-6" opacity="0.1" x="0" y="0" width="30" height="30" rx="15"></rect>
                <g id="noun_edit_2052564" transform="translate(9.000000, 9.000000)">
                    <g id="Group" transform="translate(0.000000, -0.000000)">
                        <path d="M-8.64692933e-16,10.125 L-8.64692933e-16,11.3711538 C-8.64692933e-16,11.7995192 0.350480769,12.15 0.778846154,12.15 L2.025,12.15 C2.21971154,12.15 2.41442308,12.0721154 2.57019231,11.9163462 L9.93028846,4.55625 L7.59375,2.21971154 L0.233653846,9.57980769 C0.0778846154,9.73557692 -8.64692933e-16,9.93028846 -8.64692933e-16,10.125 Z" id="Path"></path>
                        <path d="M11.9163462,1.47980769 L10.6701923,0.233653846 C10.3586538,-0.0778846154 9.89134615,-0.0778846154 9.57980769,0.233653846 L8.37259615,1.44086538 L10.7091346,3.77740385 L11.9163462,2.57019231 C12.2278846,2.25865385 12.2278846,1.79134615 11.9163462,1.47980769 Z" id="Path"></path>
                    </g>
                </g>
            </g>
        </g>
    </g>
</svg>