<?xml version="1.0" encoding="UTF-8"?>
<svg width="11px" height="12px" viewBox="0 0 11 12" version="1.1" xmlns="http://www.w3.org/2000/svg" xmlns:xlink="http://www.w3.org/1999/xlink">
    <title>noun_Flag_1969772</title>
    <g id="Page-1" stroke="none" stroke-width="1" fill="none" fill-rule="evenodd">
        <g id="Milestones" transform="translate(-138.000000, -1138.000000)" fill="#3EDAB7" fill-rule="nonzero">
            <g id="Group-18" transform="translate(130.000000, 871.000000)">
                <g id="Group-11" transform="translate(0.000000, 261.000000)">
                    <g id="Group" transform="translate(8.019992, 6.000211)">
                        <path d="M8.48470313,1.84342969 C7.70252344,1.84342969 6.98254688,1.49920313 6.41648438,0.925007813 L6.41207813,0.925007813 C5.84592188,0.352992188 5.12892188,0.01096875 4.34746875,0.01096875 C3.56674219,0.01096875 2.84899219,0.352992188 2.28288281,0.925007813 L2.27847656,0.925007813 L2.27847656,7.35323438 C2.84533594,6.7790625 3.56453906,6.4355625 4.34746875,6.4355625 C5.130375,6.4355625 5.84960156,6.7790625 6.41648438,7.35323438 L6.42089063,7.35323438 C6.98627344,7.92525 7.70404688,8.26797656 8.48477344,8.26797656 C9.26622656,8.26797656 9.98395313,7.92525 10.5493828,7.35323438 L10.5537891,7.35323438 L10.5537891,0.92503125 C9.9868125,1.49922656 9.26760938,1.84342969 8.48470313,1.84342969 Z" id="Path"></path>
                        <path d="M0.679664062,0 C0.3046875,0 0,0.303960937 0,0.6789375 L0,11.9995781 L1.35932812,11.9995781 L1.35932812,0.6789375 C1.35932812,0.303960937 1.05536719,0 0.679664062,0 Z" id="Path"></path>
                    </g>
                </g>
            </g>
        </g>
    </g>
</svg>