<?xml version="1.0" encoding="UTF-8"?>
<svg width="19px" height="18px" viewBox="0 0 19 18" version="1.1" xmlns="http://www.w3.org/2000/svg" xmlns:xlink="http://www.w3.org/1999/xlink">
    <title>house-black-silhouette-without-door</title>
    <g id="Page-1" stroke="none" stroke-width="1" fill="none" fill-rule="evenodd">
        <g id="Milestones" transform="translate(-30.000000, -103.000000)" fill="#95A0B8" fill-rule="nonzero">
            <g id="Group-12-Copy" transform="translate(0.000000, 90.000000)">
                <g id="house-black-silhouette-without-door" transform="translate(30.000000, 13.000000)">
                    <path d="M18.2977852,8.80634899 C18.6336846,8.43692617 18.6012483,7.87071141 18.2253624,7.542 L9.94409396,0.295852349 C9.56820805,-0.0328590604 8.96557047,-0.0259731544 8.59759732,0.311375839 L0.288181208,7.92833557 C-0.0797919463,8.26568456 -0.097852349,8.8311745 0.248194631,9.19087248 L0.45652349,9.40783893 C0.802147651,9.76753691 1.36081208,9.81042282 1.70353691,9.50333557 L2.32453691,8.94720805 L2.32453691,17.0890067 C2.32453691,17.5885369 2.7292953,17.9929329 3.22846309,17.9929329 L6.46749664,17.9929329 C6.96666443,17.9929329 7.37142282,17.5885369 7.37142282,17.0890067 L7.37142282,11.3930336 L11.5028456,11.3930336 L11.5028456,17.0890067 C11.4956577,17.5881745 11.8528188,17.9925705 12.3519866,17.9925705 L15.7845503,17.9925705 C16.2837181,17.9925705 16.6884765,17.5881745 16.6884765,17.0886443 L16.6884765,9.06185235 C16.6884765,9.06185235 16.8600201,9.21213423 17.0716107,9.39811409 C17.2828389,9.58373154 17.7264966,9.43489933 18.062396,9.06511409 L18.2977852,8.80634899 Z" id="Path"></path>
                </g>
            </g>
        </g>
    </g>
</svg>