<?xml version="1.0" encoding="UTF-8"?>
<svg width="24px" height="24px" viewBox="0 0 24 24" version="1.1" xmlns="http://www.w3.org/2000/svg" xmlns:xlink="http://www.w3.org/1999/xlink">
    <title>Group 14</title>
    <g id="Page-1" stroke="none" stroke-width="1" fill="none" fill-rule="evenodd">
        <g id="Milestones" transform="translate(-503.000000, -516.000000)" fill="#FFA524">
            <g id="Group-23" transform="translate(130.000000, 513.000000)">
                <g id="Group-14" transform="translate(373.000000, 3.000000)">
                    <rect id="Rectangle" opacity="0.1" x="0" y="0" width="24" height="24" rx="4"></rect>
                    <g id="noun_progress_172434" transform="translate(5.000000, 5.000000)" fill-rule="nonzero">
                        <path d="M3.80664653,2.64350453 C4.49231286,2.13947633 5.30016784,1.79241356 6.17757637,1.65800604 L6.17757637,0 C4.84736489,0.154615643 3.63064787,0.679556898 2.63222558,1.46908359 L3.80664653,2.64350453 Z" id="Path"></path>
                        <path d="M1.65800604,6.17757637 C1.79264854,5.30016784 2.13947633,4.49231286 2.64350453,3.80664653 L1.46908359,2.63222558 C0.679556898,3.63088285 0.154615643,4.84736489 0,6.17757637 L1.65800604,6.17757637 Z" id="Path"></path>
                        <path d="M12.5069486,2.98868748 C13.1453844,3.86351125 13.5648204,4.87532729 13.73095,5.94259819 L12.5405505,5.94259819 C12.3967439,5.19113797 12.0962068,4.46881504 11.663612,3.83249413 L12.5069486,2.98868748 M12.5309164,2.63222558 L11.3564955,3.80664653 C11.8607586,4.49231286 12.2075864,5.30040282 12.341994,6.17781135 L14,6.17781135 C13.8453844,4.84736489 13.3204431,3.63064787 12.5309164,2.63222558 L12.5309164,2.63222558 Z" id="Shape"></path>
                        <path d="M8.05740181,0.269050017 C9.12467271,0.435649547 10.1364888,0.855085599 11.0110775,1.49328634 L10.1670359,2.33709298 C9.53094998,1.90379322 8.80886203,1.6034911 8.05716683,1.45991944 L8.05716683,0.269050017 M7.82242363,0 L7.82242363,1.65800604 C8.69983216,1.79264854 9.50792212,2.13947633 10.1935885,2.64350453 L11.3680094,1.46908359 C10.3693521,0.679556898 9.15263511,0.154615643 7.82242363,0 L7.82242363,0 Z" id="Shape"></path>
                        <path d="M13.73095,8.05740181 C13.5648204,9.12467271 13.1453844,10.1364888 12.5069486,11.0110775 L11.662907,10.1670359 C12.0962068,9.53094998 12.3962739,8.80886203 12.5400806,8.05716683 L13.73095,8.05716683 M14,7.82242363 L12.341994,7.82242363 C12.2075864,8.69983216 11.8605237,9.50792212 11.3564955,10.1935885 L12.5309164,11.3680094 C13.3204431,10.3693521 13.8453844,9.15263511 14,7.82242363 L14,7.82242363 Z" id="Shape"></path>
                        <path d="M10.1672709,11.662907 L11.0113125,12.5069486 C10.1364888,13.1453844 9.12490769,13.5648204 8.05763679,13.73095 L8.05763679,12.5405505 C8.80886203,12.3962739 9.53094998,12.0962068 10.1672709,11.662907 M10.1935885,11.3564955 C9.50792212,11.8607586 8.70006714,12.2075864 7.82242363,12.341994 L7.82242363,14 C9.15263511,13.8453844 10.3693521,13.3204431 11.3680094,12.5309164 L10.1935885,11.3564955 L10.1935885,11.3564955 Z" id="Shape"></path>
                        <path d="M2.64350453,10.1935885 C2.13947633,9.50792212 1.79241356,8.70006714 1.65800604,7.82242363 L0,7.82242363 C0.154615643,9.15263511 0.679556898,10.3693521 1.46908359,11.3680094 L2.64350453,10.1935885 Z" id="Path"></path>
                        <path d="M3.83249413,11.662907 C4.46881504,12.0962068 5.19113797,12.3962739 5.94259819,12.5400806 L5.94259819,13.730715 C4.87532729,13.5641155 3.86351125,13.1446794 2.98868748,12.5067137 L3.83249413,11.662907 M3.80641155,11.3564955 L2.6319906,12.5309164 C3.63064787,13.3204431 4.84712991,13.8453844 6.17734139,14 L6.17734139,12.341994 C5.30016784,12.2075864 4.49231286,11.8607586 3.80641155,11.3564955 L3.80641155,11.3564955 Z" id="Shape"></path>
                    </g>
                </g>
            </g>
        </g>
    </g>
</svg>