<?xml version="1.0" encoding="UTF-8"?>
<svg width="18px" height="18px" viewBox="0 0 18 18" version="1.1" xmlns="http://www.w3.org/2000/svg" xmlns:xlink="http://www.w3.org/1999/xlink">
    <title>noun_Info_2691046</title>
    <g id="Page-1" stroke="none" stroke-width="1" fill="none" fill-rule="evenodd">
        <g id="Milestones_Task-Info" transform="translate(-715.000000, -76.000000)" fill="#95A0B8" fill-rule="nonzero">
            <g id="Group-30" transform="translate(640.000000, 0.000000)">
                <g id="noun_Info_2691046" transform="translate(75.000000, 76.000000)">
                    <path d="M9,0 C4.02943725,0 0,4.02943725 0,9 C0,13.9705627 4.02943725,18 9,18 C13.9705627,18 18,13.9705627 18,9 C18,6.61305159 17.0517884,4.32386638 15.363961,2.63603897 C13.6761336,0.948211563 11.3869484,0 9,0 Z M9.1116,13.5954 C9.19028946,13.6376415 9.28491054,13.6376415 9.3636,13.5954 C9.51909106,13.4824833 9.66049814,13.3513493 9.7848,13.2048 C9.9648,12.9906 10.1232,12.7584 10.3014,12.5172 L10.5516,12.6684 C10.1916,13.2696 9.8208,13.8276 9.27,14.2452 C8.98065919,14.4755867 8.63285879,14.6208152 8.2656,14.6646 C7.407,14.7618 6.858,14.1768 7.0632,13.3344 C7.2432,12.5946 7.4718,11.8656 7.6806,11.1312 C7.8894,10.3968 8.1,9.6336 8.3124,8.8884 C8.3295128,8.81483502 8.3421361,8.74029745 8.3502,8.6652 C8.38319884,8.53802239 8.35777184,8.40275417 8.28084483,8.29623985 C8.20391781,8.18972552 8.08350333,8.12305937 7.9524,8.1144 C7.8219338,8.1028691 7.69096045,8.09806274 7.56,8.1 C7.56223629,8.05683746 7.56887065,8.01401572 7.5798,7.9722 L7.605,7.7922 L10.7082,7.2954 L10.4922,8.0478 L10.4922,8.0478 L10.4436,8.2278 C9.9936,9.7998 9.5418,11.3772 9.0882,12.96 C9.04191437,13.0839404 9.01225625,13.2134678 9,13.3452 C8.99981338,13.4406996 9.04041848,13.5317336 9.1116,13.5954 L9.1116,13.5954 Z M9.8568,5.58 C9.55923285,5.57810025 9.27466347,5.45781847 9.06594289,5.24572053 C8.85722231,5.03362259 8.74152345,4.74715931 8.7444,4.4496 C8.7444,3.83225611 9.24485611,3.3318 9.8622,3.3318 C10.4795439,3.3318 10.98,3.83225611 10.98,4.4496 C10.9790322,5.07069697 10.4778781,5.57506357 9.8568,5.58 Z" id="Shape"></path>
                </g>
            </g>
        </g>
    </g>
</svg>