<?xml version="1.0" encoding="UTF-8"?>
<svg width="14px" height="18px" viewBox="0 0 14 18" version="1.1" xmlns="http://www.w3.org/2000/svg" xmlns:xlink="http://www.w3.org/1999/xlink">
    <title>bookmark copy</title>
    <g id="Page-1" stroke="none" stroke-width="1" fill="none" fill-rule="evenodd">
        <g id="Milestones" transform="translate(-33.000000, -265.000000)" fill="#95A0B8" fill-rule="nonzero">
            <g id="Group-3" transform="translate(0.000000, 252.000000)">
                <g id="bookmark-copy" transform="translate(33.000000, 13.000000)">
                    <path d="M13.3896797,3.85941797 L9.64058203,0.110320312 C9.57269531,0.0422226563 9.47886328,0 9.37501172,0 L1.50001172,0 C0.673101563,0 0,0.672714844 0,1.50001172 L0,16.5000234 C0,17.3272852 0.673101563,18 1.50001172,18 L12.0000234,18 C12.8268984,18 13.5,17.3272852 13.5,16.4999883 L13.5,4.12498828 C13.5,4.02113672 13.4577773,3.92730469 13.3896797,3.85941797 Z M2.25,0.749988281 L6.00001172,0.749988281 L6.00001172,5.625 C6.00001172,5.75500781 5.93261719,5.87548828 5.82201563,5.94397266 C5.76196875,5.98134375 5.69348438,6.00001172 5.625,6.00001172 C5.56751953,6.00001172 5.51039063,5.98682812 5.45726953,5.96046094 L4.12498828,5.29432031 L2.79270703,5.96046094 C2.67623438,6.01832812 2.53782422,6.01210547 2.42796094,5.94397266 C2.31739453,5.87548828 2.25,5.75500781 2.25,5.625 L2.25,0.749988281 Z M8.62498828,15.0000117 L2.62501172,15.0000117 C2.41773047,15.0000117 2.25,14.8322812 2.25,14.625 C2.25,14.4177187 2.41773047,14.2499883 2.62501172,14.2499883 L8.62502344,14.2499883 C8.83230469,14.2499883 9.00003516,14.4177188 9.00003516,14.625 C9.00003516,14.8322812 8.83226953,15.0000117 8.62498828,15.0000117 Z M10.8749883,11.9999883 L2.62501172,11.9999883 C2.41773047,11.9999883 2.25,11.8322578 2.25,11.6249766 C2.25,11.4176953 2.41773047,11.2499648 2.62501172,11.2499648 L10.8750234,11.2499648 C11.0823047,11.2499648 11.2500352,11.4176953 11.2500352,11.6249766 C11.2500352,11.832293 11.0822695,11.9999883 10.8749883,11.9999883 Z M10.8749883,9 L2.62501172,9 C2.41773047,9 2.25,8.83226953 2.25,8.62498828 C2.25,8.41770703 2.41773047,8.24997656 2.62501172,8.24997656 L10.8750234,8.24997656 C11.0823047,8.24997656 11.2500352,8.41770703 11.2500352,8.62498828 C11.2500352,8.83226953 11.0822695,9 10.8749883,9 Z M10.5000117,3.75001172 C10.0861875,3.75001172 9.75002344,3.41346094 9.75002344,3.00002344 L9.75002344,1.28028516 L12.21975,3.75001172 L10.5000117,3.75001172 Z" id="Shape"></path>
                </g>
            </g>
        </g>
    </g>
</svg>