<?xml version="1.0" encoding="UTF-8"?>
<svg width="14px" height="14px" viewBox="0 0 14 14" version="1.1" xmlns="http://www.w3.org/2000/svg" xmlns:xlink="http://www.w3.org/1999/xlink">
    <title>noun_tick_1563639</title>
    <g id="Page-1" stroke="none" stroke-width="1" fill="none" fill-rule="evenodd">
        <g id="Milestones_Documents" transform="translate(-1251.000000, -980.000000)" fill="#FFFFFF" fill-rule="nonzero">
            <g id="Group-30" transform="translate(640.000000, 0.000000)">
                <g id="Group" transform="translate(0.000000, 950.000000)">
                    <g id="Group-26" transform="translate(601.000000, 15.000000)">
                        <g id="noun_tick_1563639" transform="translate(10.000000, 15.000000)">
                            <path d="M13.8132045,1.46382587 C13.6938498,1.34433833 13.5318903,1.27719975 13.3630033,1.27719975 C13.1941164,1.27719975 13.0321569,1.34433833 12.9128022,1.46382587 L6.99973639,7.37689169 L4.90463075,5.28178604 C4.65599153,5.03314683 4.2528677,5.03314683 4.00422848,5.28178605 C3.75558926,5.53042527 3.75558926,5.93354909 4.00422848,6.18218832 L6.54953526,8.7274951 C6.66888995,8.84698264 6.8308494,8.91412123 6.99973639,8.91412123 C7.16862338,8.91412123 7.33058284,8.84698264 7.44993753,8.7274951 L13.8132045,2.36422815 C13.932692,2.24487346 13.9998306,2.082914 13.9998306,1.91402701 C13.9998306,1.74514002 13.932692,1.58318056 13.8132045,1.46382587 Z" id="Path"></path>
                            <path d="M13.8593382,5.60154021 C13.8138706,5.37874932 13.6529994,5.19713869 13.4373231,5.12511927 C13.2216467,5.05309986 12.9839317,5.10161314 12.8137229,5.25238462 C12.6435141,5.40315609 12.5666703,5.63328 12.6121378,5.85607089 C13.1523303,8.49394226 11.7819635,11.1518691 9.3198031,12.2417955 C6.85764273,13.3317218 3.96873864,12.5592497 2.37915084,10.3859149 C0.789563037,8.21258018 0.928652338,5.22541861 2.71331578,3.20919699 C4.49797923,1.19297536 7.44616445,0.692291838 9.79639222,2.00629438 C10.1038966,2.17849681 10.4927757,2.06881294 10.6649782,1.7613086 C10.8371806,1.45380427 10.7274967,1.06492509 10.4199924,0.892722665 C7.66371413,-0.650929078 4.21504471,-0.157013851 2.00283925,2.09821951 C-0.209366209,4.35345286 -0.63676462,7.81099587 0.959689725,10.5370304 C2.55614407,13.2630648 5.78073535,14.5818841 8.82993626,13.7558669 C11.8791372,12.9298498 13.9971372,10.1637426 13.99933,7.00464057 C13.9990893,6.53346637 13.9521966,6.06347364 13.8593382,5.60154021 Z" id="Path"></path>
                        </g>
                    </g>
                </g>
            </g>
        </g>
    </g>
</svg>