<?xml version="1.0" encoding="UTF-8"?>
<svg width="12px" height="12px" viewBox="0 0 12 12" version="1.1" xmlns="http://www.w3.org/2000/svg" xmlns:xlink="http://www.w3.org/1999/xlink">
    <title>noun_send_3264454</title>
    <g id="Page-1" stroke="none" stroke-width="1" fill="none" fill-rule="evenodd">
        <g id="Milestones_Task-Info" transform="translate(-1260.000000, -807.000000)" fill="#5A7DB3" fill-rule="nonzero">
            <g id="Group-30" transform="translate(640.000000, 0.000000)">
                <g id="Group-18" transform="translate(610.000000, 798.000000)">
                    <g id="noun_send_3264454" transform="translate(10.000000, 9.000000)">
                        <path d="M0.100211668,3.87025268 C0.0226506479,3.95377175 -0.0127128612,4.06803416 0.00411017768,4.18076451 C0.0209332166,4.29349486 0.0881163204,4.39245398 0.186682455,4.44968914 L4.14072004,6.73843002 L8.39405395,3.60564811 L5.26282659,7.86156962 L7.54897844,11.8119837 C7.62281253,11.940343 7.76527165,12.0132291 7.9125667,11.9980057 C8.05986174,11.9827824 8.18440284,11.882301 8.23042407,11.7415544 L11.9799261,0.492026601 C12.0240759,0.357645836 11.9888503,0.209855905 11.8888317,0.109837564 C11.788813,0.00981922317 11.641023,-0.0254059318 11.5066423,0.0187442946 L0.257108957,3.76824351 C0.197028152,3.78844159 0.143047877,3.82354013 0.100211668,3.87025977 L0.100211668,3.87025268 Z" id="Path"></path>
                    </g>
                </g>
            </g>
        </g>
    </g>
</svg>