<svg width="31" height="32" xmlns="http://www.w3.org/2000/svg" xmlns:xlink="http://www.w3.org/1999/xlink" xml:space="preserve" overflow="hidden"><g transform="translate(-1030 -431)"><path d="M15.4677 26.1562C10.4625 26.1562 6.42604 22.1198 6.42604 17.1146 6.42604 12.1094 10.4625 8.07292 15.4677 8.07292 20.4729 8.07292 24.5094 12.1094 24.5094 17.1146L24.5094 17.1146C24.5094 22.1198 20.4729 26.1562 15.4677 26.1562ZM23.1208 9.23542 24.0896 8.26667C24.4448 7.87917 24.4448 7.26562 24.0573 6.91042 23.6698 6.55521 23.0885 6.52292 22.701 6.87812L21.6031 8.00833C20.0531 6.975 18.2771 6.32917 16.4365 6.2L16.4365 4.84375 19.3427 4.84375 19.3427 2.90625 11.5927 2.90625 11.5927 4.84375 14.499 4.84375 14.499 6.16771C8.42812 6.68437 3.97187 12.0448 4.48854 18.0833 5.00521 24.1219 10.3656 28.6104 16.4042 28.0938 22.4427 27.5771 26.9312 22.2167 26.4146 16.1781 26.1885 13.5302 25.026 11.076 23.1208 9.23542Z" fill="#6E8192" transform="matrix(1 0 0 1.03226 1030 431)"/><path d="M9.97812 22.6042C13.0135 25.6396 17.9219 25.6396 20.925 22.6042 23.9281 19.5687 23.9604 14.6604 20.925 11.6573 19.4719 10.2042 17.5021 9.39687 15.4677 9.39687L15.4677 17.1469 9.97812 22.6042Z" fill="#6E8192" transform="matrix(1 0 0 1.03226 1030 431)"/></g></svg>