<?xml version="1.0" encoding="UTF-8"?>
<svg width="22px" height="18px" viewBox="0 0 22 18" version="1.1" xmlns="http://www.w3.org/2000/svg" xmlns:xlink="http://www.w3.org/1999/xlink">
    <title>Shape</title>
    <g id="Page-1" stroke="none" stroke-width="1" fill="none" fill-rule="evenodd">
        <g id="Milestones_Task-Info" transform="translate(-1233.000000, -76.000000)" fill="#3EDAB7" fill-rule="nonzero">
            <g id="Group-30" transform="translate(640.000000, 0.000000)">
                <g id="noun_chat_2169229" transform="translate(593.000000, 76.000000)">
                    <path d="M14.1131991,8.8817842e-16 C10.0818603,8.8817842e-16 6.81336084,2.59566163 6.81336084,5.79757988 C6.81336084,8.99949813 10.0818603,11.5951598 14.1131991,11.5951598 C14.384877,11.5951598 14.6528746,11.5831149 14.9171918,11.560029 C15.3638543,13.0341828 16.7212402,14.1068421 18.3275526,14.1068421 C17.4904366,13.2616963 17.1568617,12.1013773 17.3258239,11.0046283 C19.7465009,10.0607818 21.4130374,8.0837562 21.4130374,5.79757988 C21.4130374,2.59566163 18.1448726,8.8817842e-16 14.1131991,8.8817842e-16 Z M6.28372275,3.94936709 C2.73317348,4.34216249 0,6.76283946 0,9.69073775 C0,11.9769141 1.66653655,13.9539397 4.08721352,14.8977862 C4.25617577,15.9945352 3.92260079,17.1548542 3.08548486,18 C4.69213182,18 6.04951765,16.9273407 6.49584565,15.4531869 C6.75982825,15.4762728 7.0278258,15.4883176 7.29983829,15.4883176 C10.0848715,15.4883176 12.5055484,14.2493727 13.7364635,12.4275916 C11.1655607,12.3466235 8.57759438,11.201026 7.03819774,9.1022138 C5.97992528,7.64043941 5.70523616,5.64969609 6.28372275,3.94970167 L6.28372275,3.94936709 Z" id="Shape"></path>
                </g>
            </g>
        </g>
    </g>
</svg>