<?xml version="1.0" encoding="UTF-8"?>
<svg width="25px" height="21px" viewBox="0 0 25 21" version="1.1" xmlns="http://www.w3.org/2000/svg" xmlns:xlink="http://www.w3.org/1999/xlink">
    <title>noun_Cloud Upload_857930</title>
    <g id="Page-1" stroke="none" stroke-width="1" fill="none" fill-rule="evenodd">
        <g id="Milestones_Documents" transform="translate(-1028.000000, -693.000000)" fill="#95A0B8" fill-rule="nonzero">
            <g id="Group-30" transform="translate(640.000000, 0.000000)">
                <g id="Group-5" transform="translate(29.995466, 657.000000)">
                    <g id="noun_Cloud-Upload_857930" transform="translate(358.000000, 36.000000)">
                        <path d="M16.3200735,13.6808087 L12.9485057,10.3092409 C12.6858183,10.0453144 12.2583317,10.0453144 11.9956444,10.3092409 L8.62407651,13.6808087 C8.36015003,13.9447352 8.36015003,14.3709827 8.62407651,14.6336701 C8.7554202,14.7650137 8.92765392,14.8306856 9.10112672,14.8306856 C9.27336043,14.8306856 9.44683323,14.7650137 9.57817693,14.6336701 L11.7986288,12.4132182 L11.7986288,20.0559342 C11.7986288,20.4276617 12.1009671,20.73 12.4726946,20.73 C12.844422,20.73 13.1467603,20.4276617 13.1467603,20.0559342 L13.1467603,12.4132182 L15.3672122,14.6336701 C15.4985559,14.7650137 15.6707896,14.8306856 15.8442624,14.8306856 C16.0164961,14.8306856 16.1899689,14.7650137 16.3213126,14.6336701 C16.584,14.3709827 16.584,13.9434961 16.3200735,13.6808087 Z" id="Path"></path>
                        <path d="M19.8613969,6.77783025 C19.5367549,2.9862104 16.3460944,0 12.4726946,0 C8.38369277,0 5.05673222,3.32696055 5.05673222,7.41596234 C5.05673222,7.75423431 5.08151405,8.09374537 5.12983861,8.43325643 C5.04929767,8.42953915 4.96875672,8.42706097 4.88821578,8.42706097 C2.19319187,8.42706097 0,10.6202528 0,13.3152767 C0,16.0103007 2.19319187,18.2034925 4.88821578,18.2034925 L9.10236581,18.2034925 C9.47533234,18.2034925 9.77643156,17.9011542 9.77643156,17.5294268 C9.77643156,17.1576993 9.47409325,16.855361 9.10236581,16.855361 L4.88821578,16.855361 C2.93664674,16.855361 1.3481315,15.2680849 1.3481315,13.3152767 C1.3481315,11.3624686 2.93540765,9.77519247 4.88821578,9.77519247 C5.19179319,9.77519247 5.50280514,9.81856067 5.8138171,9.90281889 C6.04800538,9.96601255 6.29830185,9.89910161 6.46929647,9.72562881 C6.64029109,9.5533951 6.70472385,9.30185953 6.639052,9.06767125 C6.48292648,8.51751464 6.40486372,7.96116258 6.40486372,7.41472325 C6.40486372,4.06917633 9.12714764,1.34689241 12.4726946,1.34689241 C15.8182415,1.34689241 18.5405254,4.06917633 18.5405254,7.41472325 C18.5405254,7.78768978 18.8428637,8.088789 19.2145912,8.088789 C21.6308195,8.088789 23.5972576,10.0552271 23.5972576,12.4714555 C23.5972576,14.8876838 21.6320586,16.8541219 19.2145912,16.8541219 L15.8430233,16.8541219 C15.4700568,16.8541219 15.1689576,17.1564603 15.1689576,17.5281877 C15.1689576,17.9011542 15.4712959,18.2022534 15.8430233,18.2022534 L19.2145912,18.2022534 C22.3742744,18.2022534 24.9453891,15.6311387 24.9453891,12.4714555 C24.9453891,9.53109145 22.7187418,7.09999402 19.8613969,6.77783025 Z" id="Path"></path>
                    </g>
                </g>
            </g>
        </g>
    </g>
</svg>