<?xml version="1.0" encoding="UTF-8"?>
<svg width="12px" height="10px" viewBox="0 0 12 10" version="1.1" xmlns="http://www.w3.org/2000/svg" xmlns:xlink="http://www.w3.org/1999/xlink">
    <title>danger</title>
    <g id="Page-1" stroke="none" stroke-width="1" fill="none" fill-rule="evenodd">
        <g id="Milestones" transform="translate(-137.000000, -913.000000)" fill="#FC8C8A" fill-rule="nonzero">
            <g id="Group-18" transform="translate(130.000000, 871.000000)">
                <g id="Group-11" transform="translate(0.000000, 35.000000)">
                    <g id="danger" transform="translate(7.000001, 7.008372)">
                        <path d="M11.6397695,8.89222477 L6.48770528,0.347981651 C6.35749886,0.132041284 6.12371446,0 5.87153556,0 C5.61935666,0 5.38557225,0.132018349 5.25536583,0.347981651 L0.103347483,8.89222477 C-0.030643343,9.11444954 -0.0346112329,9.39162844 0.093003446,9.61756881 C0.220618125,9.84353211 0.459998859,9.98325688 0.719494272,9.98325688 L11.0235998,9.98325688 C11.2830952,9.98325688 11.5224759,9.84350917 11.6500906,9.61756881 C11.7777053,9.3916055 11.7737603,9.11444954 11.6397695,8.89222477 Z M5.87538877,2.95555046 C6.17128326,2.95555046 6.42165024,3.12247706 6.42165024,3.41834862 C6.42165024,4.32116972 6.31543464,5.61855505 6.31543464,6.52137615 C6.31543464,6.75658257 6.05747592,6.85518349 5.87538877,6.85518349 C5.63263647,6.85518349 5.42777409,6.75655963 5.42777409,6.52137615 C5.42777409,5.61855505 5.32158143,4.32116972 5.32158143,3.41834862 C5.32158143,3.12247706 5.56433372,2.95555046 5.87538877,2.95555046 Z M5.88298051,8.54708716 C5.54917317,8.54708716 5.29878326,8.27396789 5.29878326,7.96291284 C5.29878326,7.64426606 5.54915024,7.37873853 5.88298051,7.37873853 C6.19403556,7.37873853 6.45958601,7.64426606 6.45958601,7.96291284 C6.45958601,8.27396789 6.19403556,8.54708716 5.88298051,8.54708716 Z" id="Shape"></path>
                    </g>
                </g>
            </g>
        </g>
    </g>
</svg>